<?xml version="1.0" encoding="UTF-8"?>
<svg id="Layer_1" data-name="Layer 1" xmlns="http://www.w3.org/2000/svg" viewBox="0 0 1294.13 1288.76">
  <path d="M0,666.15v-46.8c1.19.5,5-1.09,5.18-2.74l2.01-19.11.95-17.11c.77-13.81,2.85-26.11,5.06-39.68l5.32-32.73c3.04-9.66,4.75-18.64,6.91-28.59,2.11-9.76,7.51-18.94,7.39-29.4,4.3-5.47,6.3-11.25,6.95-18.08-.4-5.13,3.38-8.97,4.96-12.97l7.42-18.69,8.09-19.22,6.59-12.89,9.58-20.35,6.42-11.98,8.09-13.97,7.07-12.21,7.49-12.08c6.75-10.88,13.28-21.54,20.91-31.32l12.66-16.22,10.28-13.03,11.66-14.39,12.46-13.37,8.45-9.85c5.25-6.12,10.57-11.85,16.69-17.09l9.14-7.84,26.79-23.89c12.91-11.52,30.54-25.06,44.84-34.55l31.31-20.77,13.13-7.39,16.02-8.89,12.43-6.96,16.57-8.12,13.04-6.37,19.97-8.72,15.81-6.34,20.73-7.66,25.56-8.04,24.41-7.24,24.16-4.76c10.14-2,19.21-5.29,29.67-5.72,11.57-.48,22.55-4.32,33.96-5.64,16.61-1.92,32.78-1.6,49.47-2.68s33.34-.8,50.02-.01l44.71,2.09c10.68.5,21.05,4.52,31.61,5.64,11.6,1.23,21.99,2.28,33.09,6.18l22.9,4.54c5.83,1.16,10.94,4.49,16.77,5.11,7.28.77,12.29,3.78,19.35,5.74l14.05,3.89,21.89,8.46,18.54,7.46,15.19,6.83,19.77,8.97,8.98,4.92c19.18,8.3,36.11,19.46,53.39,30.91l29.17,19.32,12.52,9.48,10.92,8.54,13.86,11.06,10.45,8.92,16.5,14.83,19.83,18.98,31.19,34.21,10.35,12.79,7.31,9.57,17.72,24.05,21.76,32.74,5.71,9.74,7.74,13.33,7.04,12.16,9.49,19.32,5.88,11.98,8.2,18.19,7.66,17.9,7.11,19.39,4.89,16c2.44,7.99,5,14.21,6.43,22.63l4.59,11.75,3.23,17.82c2.91,8.66,4.38,16.42,5.98,25.35l6.45,36,2.01,38.34c.48,9.24.75,16.26,3.61,25.31,1,3.17.71,9.99.09,13.51-1.57,8.97-.67,16.07.08,25.35l-1.52,13.67-2.44,27.57-1.21,24.83-1.61,12.44c-2.48,9.04-4.69,16.83-5.28,25.95s-4.09,17.39-5.7,26.65l-3.52,20.25-4.63,9.35c-1.31,10.05-4.84,17.95-7.68,27.49l-3.55,11.9c-3.09,5.35-4.93,9.18-5.91,15.27-.62,3.83-3.77,8.03-5.03,11.27l-7.7,19.84-7.62,16.04-8.7,17.04-5.86,11.3-13.68,24.23-5.29,8.78-22.68,33.58-8.19,11.26-6.86,8.57-17.75,22.54-18.81,20.24-6.69,7.43-7.1,8.54-6.68,6.57-9,7.53-16.98,15.9-24.76,20.88-10.45,7.91-9.22,7.4-11.48,8.18-9.9,6.86-10.17,6.85-14.12,9.35-11.04,6.15-14.63,8.33-14.23,8.1-13.16,6.44-18.51,8.73-18.65,7.6-16.51,6.6-24.23,8.7-25.63,8c-6.49,2.03-12.54,3.23-19.33,5.36l-16.45,5.15-25.05,3.83c-9.84,1.51-19.03,4.62-29.11,5.64l-37.63,3.8-27.18,2.8-48.87.08-16.43-1.51-23.15-2.72-14.17-1.24c-14.31-1.25-27.15-3.62-41.11-6.04l-24.66-4.28-17.52-5.18c-8.38-1.17-14.26-2.58-21.9-6.14l-13.62-3.11-24.51-8.56-12.75-4.93-12.39-5.55-22.94-9.64-15.06-6.94-12.19-6.15-31.97-17.56-10.11-6.43-11.63-7.14-13.04-8.92-8.81-5.83c-25.03-16.58-47.55-35.54-69.06-56.64l-23.77-23.32-9.24-10.21-9.35-10.03-5.73-6.5-16.35-19.73-8.03-10.29-8.28-11.07-26.08-39.05-6.84-11.14-7.87-13.13-4.88-9.4-5.78-10.09-9.22-19.51-7.29-16.04-7.07-16.42-8.69-22.51-5.87-17.4c-4.31-8.95-6.96-18.2-7.87-28.41-5.4-9.13-8.03-19.2-7.76-29.78-7.93-12.7-4.5-27.63-8.66-40.87-4.48-14.28-4.89-28.01-5.77-42.97l-.84-14.35c-.66-11.25.43-24.04-7.41-25.88ZM601.61,1247.83l28.17,1.3,38.41.33,18.33-1.1,38.77-4.81,14.41-1.19c4.7-.39,9.6-.64,13.99-1.92,9.32-2.73,18.27-4.75,27.96-5.67,6.82-.65,12.09-2.24,18.57-5,5.76-2.45,14.37-2.05,19.78-4.77,6.47-3.26,11.01-4.73,18.46-5.61l13.53-5.05,19.64-7.71,20.41-8.34,15.12-6.87,12.18-5.98,20.89-10.38,10.72-6.27,13.85-8.29,12.89-7.75,31.28-22.25,22.84-17.66,16.8-14.48,55.69-55.65,15.71-18.13,20.77-27.53,7.49-10.45,7.98-11.77,6.45-10.28,12.94-22.32c1.7-2.93,4.32-5.6,5.2-9.07,1.13-4.43,4.43-7.91,6.23-11.57l8.23-16.69,5.61-12.64,8.96-20.91,7.42-17.44,3.21-12.32c4.88-7.36,5.42-14.57,7.79-22.71,1.89-6.48,3.97-12.97,5.83-19.78l4.7-17.16,4.23-27.37c1.32-8.54,5.43-17.34,5.88-25.85l1.38-26.09,1-14.5,4-28.72c.7-5.01.76-12.63.18-17.66l-1.39-11.99-2.77-32.32-1.65-17.38c-1.11-11.65.58-24.36-3.72-35.44-5.02-12.95-2.78-23.84-7.17-37.02-2.86-8.6-4.88-15.44-5.58-24.81-.22-2.97-3.96-6.96-4.74-10.48l-3.72-16.89c-2.75-5.6-5.25-9.8-6.38-15.82-.83-4.43-2.51-8.34-4.21-12.41l-9.59-22.96-6.76-15.29-7.92-16.8-6.96-13.76-7.67-13.34-8.16-13.83-7.27-12.3-7.18-11.02-9.31-12.99-8.84-12.09-12.88-16.64-5.68-7.45-8.37-9.85-8.89-10.59-14.5-15.59-16.35-16.04-19.95-19.06-7.79-6.32-10.51-7.79-10.24-8.04-9.88-8.05-9.97-6.98-10.12-7.09-22.11-14.03-15.12-9.81-6.88-3.58-15.51-8.18-13.02-6.26-9.9-5.18-17.03-7.67-16.05-7.48c-7.39-1.45-14.16-3.98-20.51-8.37-7.73-.48-14.91-2.89-21.67-6.62-9.75-1.55-18.14-4.38-27.28-7.88l-21.09-3.84c-10.58-4.21-20.48-5.23-31.86-6.38-10.65-1.08-21.39-5.29-32.33-5.85l-19.68-1c-8.75-.45-18.21-.52-26.63-1.1l-15.05-1.03-34.37,1.07-24.11,1.1-22.19,1.18-34.81,6.19c-5.58.99-12.43.79-17.33,2.41-9.56,3.16-17.83,5.43-27.83,6.04-4.79.29-8.58,3.71-13.22,4.88l-17.66,4.46c-6.85,3.83-13.57,4.54-20.64,7.14l-22.82,8.4-17.95,7.7-19.26,9.25-11.44,5.58-13.7,7.03-14.4,7.83-12.49,8.02-9.63,6.18-15.03,9.64-9.86,6.9-11.4,8.13-7.36,5.55-11.02,8.61-16.93,14.2-23.24,20.5c-5.93,5.23-11.33,10.59-16.45,16.51l-5.89,6.82-8.41,8.76-6.67,7.66-17.22,21.6-9.49,12.8-8.79,11.83-7.69,10.47-7.19,10.97-15.72,25.92-7.59,13.21-6.38,11.64-6.8,14.12-8.69,17.5-3.62,9.45c-2.77,7.21-5.79,13.15-8.44,20.41l-7.64,21c-2.82,7.76-5.35,14.53-7.09,23.05-.79,3.87-4.58,9.36-5.12,13.47-.71,5.36-.8,11.35-2.76,15.73-3.92,8.74-4.5,16.33-5.83,25.86l-1.39,9.97c-2.65,9.95-4.69,19.1-5.5,29.4l-2.53,32.12-1.69,21.93-1.06,13.34c-.78,9.87-.97,20.83.24,30.6l2.31,18.59,1.17,15.69,1.46,23.32,1.21,15.64c.55,7.14,5.4,15.02,5.65,22.23.38,11.09,1.96,20.21,6.17,30.49l3.7,18.34,7.55,21.57,7.83,25.82,4.1,8.28,7.45,18.77,7.09,16.22,7.89,16.65,8.12,15.52,7.49,12.17,4.8,9.45,7.92,13.15,6.55,10.11,6.5,9.22,15.39,22.42,7.43,9.2,7.49,9.6,7.35,9.52,7.33,8.21,41.56,41.72,15.91,15.13,8.36,7.37,8.8,6.88,16.62,13,9.52,7.52,8.44,5.77,37.58,24.76,11.41,6.64,13.81,6.97,18.48,9.04,15.37,7.49,15.64,6.69,18.54,7.85,14.8,4.42c5.75,3.44,9.91,5.35,16.58,5.9,4.77.39,8.63,3.59,13.15,4.65l21.46,5.06c9.71,2.29,18.26,3.54,28.05,5.98l22.31,5.54,11.7,1.12c13.57,1.3,25.84,2.62,39.98,4.98Z"/>
  <path d="M749.64,1087.61c-10.35,7.33-23.89,9.47-35.75,10.45l-15.9,1.32-24.65,1.19-52.54,5.76-96.85,11.06-47.66,6.84c-15.04,2.16-34.21,1.83-41.88-9.81l-15.5-23.54c-8.07-12.26-19.75-20.75-29.23-31.74l-27.75-32.15c-10.41-12.06-16.61-26.83-24.1-40.8l-8.62-16.1c-3.37-6.29-6.28-13.18-12.41-17.57-10.85-7.79-18.51-17.9-22.39-31-1.35-4.55-.3-9.1,4.79-10.88l8.62-3.02-2.09-10.99,15.46-1.92,20.84-3.58c25-4.3,48.6-11.36,73.31-17.47l31.45-7.78,41.68-9.08,13.78-3.18,23.19-6.77,39.48-11.13,23.81-6.19c21.05-5.47,41.42-10.3,62.85-13.75l26.33-4.25,10.59-1.51c19.26-2.75,52.28-.5,66.66,12.13l6.05,11.07c5.56,10.17,7.01,20.97,6.88,32.98,0,2.85,1.99,7.71,3.27,11.38,9.3,1.32,17.07-.22,25.88-1.63l25.69-4.11,13.4-2.18,51.55-9.7,45.64-6.04,15.97.07,22.76-1.38,14.66.07,15.48.22,42.7,7.04c3.56.59,7.56,4.44,10.43,6.36,4.43,2.96,8.21,5.75,9.57,9.7,2.06,5.98.57,10.87-2.17,15.89-4.2,7.7-8.01,16.08-14.38,21.76-19.93,17.75-46.22,30.73-70.58,41.56-17.02,7.56-33.62,11.59-51.95,14.67l-44.27,7.45-44.75,6.74c-12.39,1.86-23.85,1.43-36.06,6.04l-.7,13.15-1.2,24.32c-.41,8.23-3.59,17.95-8.49,24.48l-10.6,14.12-30.29,21.44ZM800.08,953.4c8.79-2.37,16.96-1.7,25.4-2.92l29.85-4.3,23.18-3.66,59.64-10.19c9.19-1.57,17.76-5.41,26.11-9.13l27.82-12.37c11.92-5.3,21.35-13.46,26.74-25.06l-13.85-2.35-36.49.21-22.19,1.19-23.43,2.35c-29.07,2.92-56.33,11.57-85.16,15.93l-46.09,6.98-35.95.05c-19.24.02-32.99-20.32-33.9-41.03-.43-9.73-1.77-18.74-8.36-26.14-42.37,3.75-82.81,12.74-123.94,22.35l-34.6,8.08c3.35.81,10.1,1.23,11.33,3.77l10.66,21.99c7.53,15.54,10.51,32.22,14.87,48.75,3.59,13.6,10.91,25.11,14.47,38.57l12.13,45.84c.93,3.51.91,7.13,1.09,10.78.26,5.19,1.23,12.35-1.86,16.68l-9.79,13.73,74.74-8.18,17.03-1.08c8.78-.56,19.5-.09,26.78-6.04,7.97-6.5,14.29-15.72,19.33-24.58,3.88-6.81,4.4-14.22,4.88-21.61l1.19-18.39c.51-7.89,2.32-18.12,8.56-23.48,11.19-9.62,25.57-12.92,39.82-16.76ZM417.71,1004.65l9.33,10.67,24.78-4.01,63.32-6.69,26.82-.77c5.12-.15,9.46-.8,14.57.75l-30.02,6.06-50.65,7.63-41.72,5.18,22.47,23.37c2.47,2.57,3.5,7.42,8.87,6.76l68.5-8.51c4.42-.55,9.29-1.32,12.58,1.28l-81.54,12.63,9.93,17.57,3.61,8.54c5.89,3.06,13.66,2.12,20.71,1.21l39.02-5.07,23.48-2.53,14.12-1.43,17.31-1.38c-3.2-6.01-5.31-9.32-6.32-15.48l-2.72-16.52-14.26-45.83c-8.43-21.95-15.67-42.67-17.98-66.51l-5.17-25.79-6.25-28.15c-18.82,5.21-37.41,8.71-56.75,12.41l-84.89,16.25-35.61,5.02,11.75,11.3c23.76-5.88,45.96-8.68,69.43-11.26l25.6-2.82,31.59-.98c4.21-.13,7.72-1.29,12.45.85l-31.48,7.55-58.8,8.88-44.05,6.61,4.52,12.4c.59,1.62,2.95,4.66,4.41,6.31l40.31-5.77,55.9-5.26c18.57-1.75,36.05-2.33,54.81.49l-11.36,2.86-38.31,7.08-55.81,7.76-41.4,5.32,11.1,23.35,13.29-1.62,64.58-7.94,64.53-5.8c-31.4,7.28-62.21,14.89-94.42,18.59l-42.61,4.89,8.41,10.5Z"/>
  <path d="M219.29,485.83l-6.66-10.46-7.9-15.36c-3.63-7.05-5.94-14.09-8.37-21.55-1.38-1.82-4.35-5.7-4.65-7.87-.77-5.49-4.11-7.9-6.27-12.17l-7.38-14.57-7.16-16.29-6.94-19.69c-.87-2.47,2.2-7.51,2.97-10.22,1.06-3.71,1.01-8.57,3.26-11.6,4.63-6.25,15.46-11.13,23.07-8.16l21.75,8.48,11.48,6.17,19.66,9.28c5.76,2.72,10.89,5.84,17.68,6.68,4.65,3.95,10.04,6.55,16.16,7.21,5.93,5.33,13.84,6.23,20.8,9.41l12.55,5.72c1.43.65,4.13,1.09,5.32.51s1.61-4.69,1.02-5.94l-5.22-11.09-6.87-16.68-7.16-17.85-5.82-16.55c-3.24-9.2-6.65-17.41-6.64-27.34v-9.47c.02-13.45,16.74-24.14,29.55-21.09,4.72,1.12,11.46,2.04,14.19,6.61,3.2,5.36,5.69,12.34,6.01,18.33.34,6.41,2.4,9.81,4.29,15.66l4.14,12.85,9.07,23.74,7.53,21.41,6.55,17.67c2.74,7.39,5.12,13.97,7.33,21.35l10.46,34.96c1.61,5.4-4.75,15.77-9.95,19.02-12.63,7.92-30.98,7.25-42.92-1.42-6.1-4.43-10.82-9.43-17.75-12.37l-16.59-7.03-10.88-5.48-12.92-6.47-17.52-8.54c-5.05-2.46-9.93-4.17-14.68-7.49-2.87-2.01-9.99-.39-9.04,3.59.84,3.5,3.34,9.67,5.29,12.82l9.09,14.73,6.76,11.37,7.86,14.26c4.47,8.11,8.71,16.36,5.66,26.08-1.73,5.49-5.16,7.62-10.55,9.4l-18.05,5.96c-8.18,2.7-10.99-4.18-14.47-9.53l-7.13-10.98Z"/>
  <path d="M687.47,300.41l-6.26-8.53-8.42-11.14c-5.15-6.81-3.26-16.53-4.83-23.91l-2.77-13.05-.94-15.77-.51-14,2.75-19.1,3.76-16.82c1.29-5.77,3.63-10.45,6.48-15.45l8.02-14.08,6.63-11.7,5.24-10.32,5.95-8.61c7.81-5.73,15.71-12.62,24.9-16.31l15.53-6.25c9.71-3.91,17.81-1.19,26.37,2.86,4.08,1.93,10.4,2.65,13.83,5.51l9.34,7.79,7.28,19.85c2.6,7.09,1.54,17.25,2.24,25.26s4.73,15.22,6.59,23.1c2.72,11.53,1.91,25.09-1.83,36.19-5.42,16.11-4.76,25.21-6.81,40.05l-7.27,16.26-9,15.65-8.39,9.94c-2.42,2.86-8.73,6.39-12.27,7.77l-19.98,7.8c-10.27,4.01-23.15,4.49-33.58.68-7.96-2.91-16.88-6.58-22.06-13.65ZM755.05,222.57l4.95-24.68c1.23-6.11.8-15.32-.12-21.37l-2.08-13.66c-.27-1.81-1.18-6.45-2.9-7.07-6.12-1.95-15.26.27-18.43,6.61-2.37,4.74-7.5,10.57-8.95,14.98l-6.54,19.99c-5.62,17.17-3.89,36.69-1.19,53.99l8.66,10.6c14.79-1.63,23.49-23.91,26.6-39.38Z"/>
  <path d="M655.82,666.98c-2.07,8.26-29.26,16.96-45.65-.09-12.98-13.51-4.07-24.34-12.87-49.52-2.48-7.11-1.65-15.86-2.62-23.4l-4.28-33.16-3.14-21.96c-1.13-7.92-2.76-16.92.77-24.23,6.26-12.94,32.11-14.12,36.83-9.34l15.57,15.75,8.38,9.73,42.88,43.12,10.48,10.32c1.6,1.13,2.82,2.06,3.95,2.06s2.35-3.34,2.44-4.51l1.76-22.76-2.95-45.16c-.68-10.44.59-20.69,1.8-31.42,1.16-10.33,22.96-12.88,35.8-7.38,3.22,1.38,8.05,6.87,9.64,9.82l4.34,20.39,1.84,10.19c.03,24.92,1.38,49.16-.57,73.81l-2.49,31.53c-.44,5.55-1.27,13.48-3.21,18.91-3.65,10.21-15.94,16.3-26.47,16.46-5.15-1.53-12.59-4.34-16.27-7.16l-11.31-8.69-10.22-7.85-22.34-16.85c-4-3.02-7.76-5.39-11.42-9.33-.96-1.03-3.25-2.41-4.45-2.73s-3.34,3.17-3.29,4.5c.65,20.08,12.48,37.27,7.05,58.96Z"/>
  <path d="M504.11,689.66c-5.05,6.03-9.71,6.3-16.65,6.84-10.94.85-21.39,1.1-32.52-.06-5.6-.59-9.74-3.62-14.39-6.66-13.5-8.84-22.14-15.57-31.31-30.01-3.53-5.56-8.41-11.23-10.96-17.18l-7.11-16.6c-3.53-8.25-.47-19.57,0-28.55.25-4.83-.35-11.02,1.02-14.75,2.84-7.78,4.42-13.47,4.67-21.76.1-3.48,3.07-7.6,4.38-10.61,9.11-20.9,25.27-32.89,46.37-41.28,4.16-1.66,8.95-5.51,13.66-5.48l22.69.14c2.94.02,7.91,4.12,10.62,5.46,15.13,7.47,20.41,15.78,28.42,29.52,2.58,4.42,4.25,8.4,6.16,13.45l7.8,20.6,4.93,12.62c3.05,16.25,1.62,29.97-3.06,45.03l-5.23,16.84-8.24,16.93c-1.84,3.79-6.82,8.25-9.77,11.77l-11.48,13.72ZM482.25,614.72l4.2-10.68,6.02-19.27-5.9-17.03-7.81-9.88c-2-2.54-7.34-4.62-9.43-2.66l-15.69,14.68-8.58,27.76c-1.92,6.21,4.71,34.63,8.64,41.56,2.27,4.01,12.04,6.23,15.78,4.05,7.64-7.8,8.84-18.57,12.76-28.54Z"/>
  <path d="M919.43,712.15c20.32-.04,25.13-9.62,39.91-9.98,7.6-.19,12.87,2,18.17,7.05,6.39,6.11,10.06,13.57,7.32,23.12l-9.05,8.47-11.64,6.72c-7.61,4.39-18.1,8.78-26.98,8.88l-51.87.6c-2.27.03-7.54-1.3-9.69-2l-21.66-7.08c-4.12-3.28-10.7-8.73-13.29-13.35l-7.63-13.62c-3.33-5.94-2.26-15.23-4.53-21.51-3.26-9.03-5.51-16.93-6.06-26.67l-4.61-14.16-7.49-26.84c-1.53-5.49,6.13-23.58,11.27-32.7,2.3-9.87,6.27-16.97,16.56-20.82,4.55-1.7,10.81-4.87,15.81-5.32,7.66-.68,13.12-2.16,19.76-5.47,6-2.99,13.96-2.18,20.52-3.11,10.21-1.44,19.73.05,26.87,7.45,2.62.72,7.46,1.91,8.9,3.76,1.71,2.2,2.22,7.86,1.89,10.59-.85,6.97-3.52,9.02-8.42,13.17-2.04,1.73-4.91,5.89-8.07,5.72-10.74-.59-18.98,2.28-28.82,5.19l-18.72,5.53c-9.34,2.76-5.07,20.36-1.74,23.53,1.77,1.68,7.18,2.11,9.75,2.31,10.7.86,18.16-1.53,27.4-5.37,8.76-3.64,20.12-2.9,29.51-2.1,10.82.92,20.35,14.36,16.16,25.88-2.41,6.62-18.85,15.37-29.57,14.1l-7.58,5.58c-8.79,1.07-16.15,3.46-24.55,6.5-2.42.87-6.59,1.68-8.09,3.15-1.8,1.76-1.67,5.71-1.15,8.67,1.22,7.03,6.57,12.64,14.4,13.09l18.61,1.06,8.4-.02Z"/>
  <path d="M1051.75,424.31c1.38-12.86-8.46-30.79-10.58-31.8-3.24-1.54-8.34-1.79-11.9-1.21-7.92,1.28-17.29-.09-24.14,4.86-5.14,3.71-9.67,12.06-11.41,17.69-2.3,7.43-6.21,8.42-12.22,10.72-7.31,2.79-12.16,2.87-19.4-.12-5.64-2.33-10.12-4.54-13.64-9.94-4.45-6.84-.94-12.01,1.88-18.58l8.98-20.88c1.12-6.53,3.16-12.55,7.03-17.87.99-7.26,3.18-13.8,6.98-20.4l3.87-19.66c1.28-6.49,4.87-12.34,5.19-19.17.37-8.06,1.43-14.73,5.95-21.57,1.67-2.54,1.63-9.62,3.03-12.32l8.86-17.07,19.38-7.2c3.16-1.17,8.05,1.3,10.89,2.68,6.41,3.11,10.07,6.4,13.62,12.84l7.29,13.24,7.68,13.1,7.93,16.33,7.13,16.71,4.34,14.21c1.56,5.11,4.9,10.93,5.36,16.02.67,7.51,1.68,12.34,5.47,18.75,2.42,4.09,1.71,12.64,3.38,17.28,2.56,7.12,5.2,13.32,6.36,20.77,3.22,20.71,14.61,33.47.5,50.34-6.67,7.97-19.1,11.68-29.91,9.27-5.82-1.3-8.1-4.37-10.85-9.13-4.91-8.5-8.14-17.54-7.03-27.89ZM1032.74,350.51c8.56-4.18,4.04-13.06.43-18.1l-5.59-18.06c-13.74,3.08-16.16,22.87-11.82,36.71,5.02.55,12.95,1.42,16.98-.54Z"/>
  <path d="M293.18,777.74c-15.74,6.64-32.88,4.69-49.01,1.94l-11.91-9.52c-2.77-2.21-3.67-10.18-5.71-13.17-5.46-8-5.92-16.35,1.03-23.35l3.98-8.67,14.99-6.11c8.74-3.57,25.2,3.31,28.15-1.02s.08-8.92-2.16-12.08l-7.11-10.04-13.66-19.95-19.98-26.95-7.74-8.08-7.91-8.33-7.12-10c-2.84-4-5.37-7.67-8.65-10.93l-7.22-7.17c-6.35-6.31-11.77-13.16-17.45-20.6-.28-5.68-.92-14.21.44-19.57,4.21-16.59,27.83-18.78,38.94-10.34,7.62,5.78,16.7,11.28,21.87,19.48,2.46,3.9,4.3,7.67,7.53,10.89l9.87,9.84,15.23,16.77,13.9,12.77c4.94,4.54,9.92,11.07,13.86,16.73l8.57,12.33,8.44,12.17,10.12,15.06,7.7,14.53c3.72,7.02,5.53,13.59,6.82,21.9.94,6.05,5.48,13.35,3.83,19.83-1.41,5.55-12.3,19.46-17.79,23.62l-10.48,7.94c-2.69,2.04-5.88,3.57-9.16,4.95l-12.19,5.14Z"/>
  <path d="M626.53,416.33c-7.5,8.91-25.76,6.4-38.34,1.05-4.16-1.77-10.58-2.98-14.09-5.33l-9.54-6.4c-7.34-4.93-14.62-10.27-20.74-16.82l-6.87-7.34-9.62-15.12-5.15-10.35c-2.04-4.09-2.58-10.26-3.02-14.93-1.59-17.14-11.86-27.69-7.3-47.96l3.38-15.02,4.1-19.78,4.71-11.72c2.5-6.22,5.24-11.55,10.41-15.78l11.47-9.38c5.14-4.2,10.94-5.68,16.77-8.13,14.43-6.07,28.69-8.52,43.71-2.9,8.55,3.2,13.79,7.82,17.65,16.87,3.16,7.41,4.66,19.29-2.66,24.9-19.76,15.16-39.42,2.95-45.62,13.35-3.3,5.53-7.73,12.23-8.71,17.93-2.14,12.43-2.68,23.68.21,35.72,1.61,6.72,4.91,15.8,8.92,21.4l11.56,16.15c2.27,3.17,7.47,7.04,11.49,9.4,3.48,2.04,11.99,1.13,16.19.43,4.13-5.71,9.11-8.42,16.42-8.74,8.46-.37,16.79,5.27,16.77,14.47l-.05,25.59-10.57,13.34-11.52,5.08Z"/>
  <path d="M1089.01,731.92c-14.98,7.62-46.22,7.04-55.56-11.02-3.08-5.96-3.42-12.08-.69-18.04,6.32-13.77,26.64-6.77,42.86-21.9,7.59-7.08,9.94-21.35.8-26.8l-15.11-9.02-17.14-9.04-10.86-5.75-18.55-8.88c-12.22-5.85-21.91-13.13-25.04-26.24-1.94-8.13-4.66-16.06-2.02-24.02,2.71-8.17,5.42-15.52,9.96-22.66l6.59-10.37c3.06-4.82,7.49-8.15,12.37-11.24,5.26-5.07,11.11-7.81,18.85-8.3,7.93-6.42,20.4-9.59,28.67-2.72l7.96,6.62c6,4.99,6.52,18.33.82,24.38-3.93,4.18-10.05,8.6-15.2,10.41l-10.95,3.85c-4.28,14.95-1.6,21.21,10.71,28.94l11.46,7.2,14.06,6.6,17.1,8.98,14.3,8.81,8.52,7.06c4.1,3.4,6.07,7.46,8.43,12.65,1.1,2.42,5.09,6.68,5.6,9.47,1.53,8.36.46,17.35-2.97,24.63l-5.12,10.86c-5.01,10.61-13.05,19.44-20.75,28.34-5.56,6.43-11.5,13.32-19.11,17.19Z"/>
  <path d="M924.65,431.13c2.78,8.62-3.62,18.62-10.68,23.24-8.84,5.8-19.68,5.34-29.97,5.44l-15.5.16c-6.66.07-10.54-1.93-16.09-5.59-4.33-2.86-13.42-1.52-18.43-3.47-6.26-2.44-12.9-5.47-18.32-9.16l-14.26-15.99c-2.71-13.47-2.36-27.49-.87-41.73.61-5.81,2.87-10.55,5.11-15.71l6.29-14.48,9.43-21.58,7.35-18.71,7.06-17.77,6.09-17.2c4.15-11.71,9.25-20.4,18.65-28.68,5.51-4.85,12.84-7.32,20.95-6.14,7.94-1.16,15.49,3.94,14.48,12.21,7.23,9.19,5.12,18.58-.45,27.81l-7.54,12.47-7.35,18.01-4.23,14.29-7.74,22.32c-2.45,7.07-5.04,13.31-6.11,20.97-.71,5.08-3.97,9.12-5.01,14.23l-2.22,10.93c-.86,4.25,1.66,6.63,5.13,7.84l15.65,5.47c11.45,4,19.64-.27,32.41,6.62,5.62,3.03,13.7,6.6,16.16,14.2Z"/>
  <path d="M460.79,298.84c9.16,12.45,10,30.54-2.69,40.18-7.98,6.06-15.79,7.37-25.28,3.63-6.37-2.51-14.04-4.08-18.26-10.58-2.57-3.96-1.98-10.58-3.27-15.01-2.27-7.75-6.45-14.57-6.89-22.64-.31-5.67-.67-12.05-2.79-16.97s-4.08-9.52-4.49-15c-.69-9.17-2.32-17.68-6.76-25.7-.28-10.52-2.68-19.81-6.7-29.6-3.67-8.93-3.56-20.5-1.62-29.58,2.47-11.61,11.3-17.07,22.31-16.11,20.09,1.76,31.63,18.17,32.66,38.02.47,9.04,8.25,18.37,7.96,34.8,4.31,11.02,6.46,21.88,7.99,33.78.71,5.55,3.97,10.99,5.08,16.66l2.76,14.11Z"/>
  <path d="M647.28,1047.94c-3.99-.78-6.2-3.95-6.47-7.32-1.13-13.74-5.28-26.05-8.66-39.12l-11.27-43.59c-2.27-8.78-3.82-18.06-5.36-27.09l-7.25-42.51,7.53-7.95c2.64,4.51,4.75,8.59,6.11,14.23l12.18,50.23c3.44,14.18,8.96,26.36,11.14,40.97l6.39,24.64c3.01,11.6,6.51,32.78,1.71,36.94-.98.85-3.76,1.01-6.07.55Z"/>
  <path d="M685.19,1037.9c-1.44,2.8-9.85,1.13-11.47-1.47l-5.91-44.62-4.82-26.8-6.93-28.17c-4.16-16.9-10.59-31.95-13.06-49.62l7.59-10.32,9.25,26.78,12.75,41.46,6.2,27.57,6.47,47.02c.78,5.69,2.44,12.29-.09,18.18Z"/>
  <path d="M946.78,917.37c-8.24,4.23-27.44,3.86-35.63-5.26,8.2-15.66,20.95-28.62,37.1-24.22,3.72,2.89,2.26,9.18,2.29,13.66s3.02,12.33-3.77,15.82Z"/>
</svg>