<?xml version="1.0" encoding="UTF-8"?>
<svg id="Layer_1" data-name="Layer 1" xmlns="http://www.w3.org/2000/svg" viewBox="0 0 3151.85 418.98">
  <path fill="#E8846F" d="M602.91,298.36c-3.89,45.73-59.47,83.57-94.24,84.77l-62.68,2.16-235.25,19.95c-19.73,1.67-34.43-8.75-42.06-25.27-19.97-43.21-62.56-72.2-89.84-130.57-10.07-21.54-17.36-44.48-32.36-62.88-10.32-12.66-22.14-25.02-24.89-41.69-.47-2.84,1.24-10.39,3.91-11.38l11.46-4.21.22-13.61c49.38-2.88,94.89-13.51,143.26-24.01l174.04-37.8c56.33-12.23,178.9-41.16,206.85-2.5,20.9,28.92,5.39,70.63,28.54,67.8l107.77-13.16c60.01-7.33,118.52-10.04,177.79,2.25,15.74,3.26,36.56,10.46,39.33,28.3,3.03,19.5-12.69,37.44-28.09,48.24-84.17,59.04-151.2,55.89-247.33,67.82l-32.89,4.08-3.55,41.71ZM547.79,267.23c.64-49.28,41.78-53.75,88.4-57.35,44.61-3.45,87.91-7.28,131.67-15.94,25.35-5.02,49.13-17.65,72.22-28.18,10.24-4.67,18.57-13.31,21.72-24.25-65.74-10.36-126.86-2.61-190.26,8.57-41.32,7.28-83.38,14.96-124.41,4.03-29.04-7.73-24.21-55.84-34.94-81.5-50.45,2.64-96.81,10.59-145.71,20.42l-34.6,6.95,10.34,8.69c9.07,21.93,14.38,44.49,20.78,67.6l17.94,64.72c10.73,38.7,24.88,84.4-.73,108.69l66.25-5.64c20.24-1.72,45.29,1.17,64.11-6.16,27.08-10.55,36.86-42.91,37.22-70.64ZM154.26,242.64c7.61,11.97,12.56,18.09,19.04,24.63,50.15-3.24,96.65-10.91,145.42-4.38-47.82,9.48-91.19,11.7-138.11,15.99l30.28,38.48,55.31-5.57c13.68-1.38,27.7-1.15,42.35.63l-92.98,11.46,10.79,26.64c2.03,5.02,7.84,9.62,14.27,9.14l121.68-9.13-9.29-38.96-26.17-104.38-15.73-99.37-110.35,16.32-96.16,14.22c4.36,5.11,9.33,9.84,13.67,12.92,53.59-8.86,105.93-13.85,160.09-9.83-36.91,12.22-73.51,13.17-111.05,16.7l-46.94,4.4,9.64,23.85c59.87-5.07,114.77-11.18,173.8-5.7-18.67,5.7-36.01,9.05-53.76,10.72l-114.23,10.8,10.79,29c54.8-3.94,106.37-10.85,162.53-11.62-51.68,12.55-102.17,17.4-154.91,23.06Z"/>
  <path fill="#E8846F" d="M2519.35,265.99l-5.09-46.87-11.17-128.22c-1.66-19.07,11.37-31.75,29.87-32.29,11.53-.34,20.71,3.82,27.85,12.91l57.94,73.63,32.61,35.78c5.55-29.37,5.48-55.2,4.36-84.72-1.25-22.13-.13-43.69,4.08-65.87,16.82-13.56,39.7-10.78,54.03,5.08l7.42,50.53c1.73,56.74-1.04,111.67-9.45,168.01-2.16,14.49-20.35,28.14-34.38,26.29-12.45-1.64-22.14-11.32-30.4-18.96l-66.62-61.62c-9.42,25.47,13.39,62.89,2.67,91.26-5.74,15.19-27.42,14.45-39.01,11.01-16.38-4.86-22.8-18.23-24.72-35.94Z"/>
  <path fill="#E8846F" d="M1044.3,233.04c7.91,29.17,21.45,74.06,6.3,86.42-8.28,6.76-35.28,9.16-45.95-.4-13.6-63.52-23.33-124.32-31.81-188.8-3.04-23.07,12.91-46.05,26.34-47.21,10.73-.92,19.77,4.98,26.98,12.29,36.34,36.82,69.06,71.63,111.98,107.9l-10.82-124.53,3.6-23.61c2.43-15.97,16.74-22.46,30.34-21.46,14.6,1.07,24.55,13.42,25.35,29.23l3.72,73.38c2.57,50.71,10.35,98.76,12.11,149.81-2.59,6.66-11.4,18.54-18.24,21.23-24.79,9.78-42.19-11.52-57.6-27.16l-83.88-85.16c-5.59,12.56-1.89,25.27,1.58,38.07Z"/>
  <path fill="#E8846F" d="M2829.5,290.88c10.64,17.48,59.48,18,97.06.18,11.41-5.41,25.27,3.61,32.06,12.13,6.72,8.44,12.91,25.1,3.4,34.91-25.96,26.79-62.57,30.95-98.02,29.6-44.42-1.7-86.74-9.39-96.43-55.75l-14.3-68.42c-4.45-21.29-13.66-42.97-12.81-65.24.77-20.22,11.84-45.34,24.72-60.76,11.27-13.49,33.03-14.52,48.09-19.65,30.68-10.46,64.28-13.42,81.6,10.12,6.05,8.23,2.6,22.28-3.52,29.11-12.8,14.28-38.14,9.07-75.81,24.67-13.13,5.44-11.67,31.43.24,37.1,21.92,10.43,47.26-12.27,78.98-8.69,14.51,1.64,23.29,12.9,25.19,24.22,2.22,13.22-5.69,24.71-19.39,29.33l-71.41,24.08c-4.08,4.47-3.28,17.12.35,23.07Z"/>
  <path fill="#E8846F" d="M2422.2,303.77c-55.05,2.59-76.38-10.79-100.27-57.51-15.6-30.51-20.91-61.42-13.49-95.44,12.26-56.16,20.51-81.59,73.4-104.71,30.93-13.52,65.52,1.74,79.44,33.41,37.78,86,31.94,160.06-39.08,224.25ZM2399.27,226.21l25.92-66.3c6.08-15.55-4.61-41.27-16.71-49.07-43.54,8.09-46.7,101.66-25.2,118.27,3.16,2.44,14.42,1.09,15.98-2.9Z"/>
  <path fill="#E8846F" d="M1931,232.19l-40.17,3.96c-10.87,1.07-14.92,35.25-30.13,42.23-9.04,4.15-20.69,2.34-28.76-1.54-10.55-5.07-17.64-15.23-13.55-27.55,15.83-47.62,29.81-94.67,40-143.99,4.88-23.63,8.69-46.69,22.65-66.36,5.69-8.02,21.89-14.66,29.91-12.7,12.14,2.95,20.04,11.97,25.66,23.21,21.42,42.84,40.11,85.81,50.71,132.85l24.83,110.11c2.44,10.82-6.14,24.31-12.3,29.62-8.81,7.6-24.07,10.88-34.26,4.59-29.54-18.22-9.06-57.79-34.61-94.42ZM1926.98,172.15l-15.3-45.06c-16.63,14.04-18.27,35.71-9.77,50.96,5.31,4,22.9.62,25.07-5.9Z"/>
  <path fill="#E8846F" d="M2263.61,352.71c-32.25,18.45-65.75,19.8-97.7,3.68-17.3-8.73-26.66-21.11-27.41-41.51-.52-14.16-.56-26.24,9.86-34.84,25.22-20.83,40.34-.3,68.02,1.52-4.88-49.46-15.98-94.23-30.43-141.15l-18.21-59.15c-6.58-21.38-4.97-49.89,18.77-58.68,19.38-7.18,39.74,11.68,44.5,29l9.47,34.48,20.2,62.45,23.56,80.53c8.57,29.31,9.24,57.84,4.57,88.12-2.56,16.61-9.83,26.76-25.2,35.55Z"/>
  <path fill="#E8846F" d="M3095.05,322.24c-17.61,20.69-36.23,29.67-62.96,25.33-18.3-2.97-37.54-15.12-36.1-36.62,1.09-16.3,16.07-24.14,31.46-26.74,22.33-3.77,43.71-21.98,34.51-46.47-8.04-11.38-26.69-20.13-39.32-27.31l-44.72-25.43c-34.81-19.79-48.55-56.13-31.87-92.17,14.98-32.37,39.89-58.74,77.93-63.29,20.02-2.4,39.63,19.87,33.44,39.41-9.18,28.99-48.23,15.32-41.86,49.91,1.15,6.23,7.4,15.01,14.63,19.4l51.36,31.16c18.39,11.16,35.64,21.39,46.49,39.63,24.62,41.36-.78,75.35-32.99,113.19Z"/>
  <path fill="#E8846F" d="M1595.17,303.9l-45.47.84c-17.94-9.03-32.29-21.25-42.23-37.36-24.6-39.91-25.53-81.65-14.37-125.98,10.01-39.79,34.32-75.26,77.54-81.92,48.4-7.46,63.26,34.39,74.52,75.94,16.67,61.48,1.94,126.23-49.99,168.48ZM1577.64,227.9l18.25-54.31c6.08-18.09-.4-38.46-13.48-52.71-49.56,25.13-42.13,118.91-16.71,115.8,3.31-.41,10.82-5.44,11.94-8.79Z"/>
  <path fill="#E8846F" d="M1424.08,285.47c19.87,18.13,31.22-16.09,50.32-5.66,16.02,8.75,17.27,47.65,1.47,63.61-10.23,10.34-26.33,20.2-43.5,16.53-47.03-10.07-85.57-47.7-98.1-94.2l-9.6-48.07c-6.14-30.75,3.94-63.92,18.84-91.43,22.17-40.94,86.4-59.86,109.59-29.63,9.12,11.89,12.09,27.05,4.49,40.62-14.25,25.43-50.48-1.97-62.42,29.4-15.74,41.36-3.87,88.93,28.89,118.83Z"/>
  <path fill="#E8846F" d="M1827.35,312.34c2.64,37.03-50.25,40.97-91.71,36.15-23.23-2.7-48.64-7.57-60.5-32.65-11.1-23.47-10.12-54.42-5.78-81.03l20.65-126.55c2.12-13.01,6.03-25.47,11.16-37.87,5.67-13.7,25.64-22.89,38.31-13.94,17.57,12.41,15.33,35.23,11.49,54.14l-7.89,38.91-11.55,127.75c22.38,7.26,40.62,7.33,62.23,7.56,15.24.16,32.39,10.77,33.59,27.54Z"/>
  <path fill="#E8846F" d="M1291.78,267.78c-10.03,14.73-28.22,14.91-41.56,5.27-10.84-7.84-15.06-16.71-15.43-29.94l-4.69-165c-.33-11.77,10.08-23.65,19.18-25.6,11.53-2.47,23.78,1.47,31.7,12.5,8.11,11.3,9.21,27.11,9.83,41.67l5.08,118.12c.63,14.61,4.77,29.95-4.11,42.99Z"/>
  <path fill="#E8846F" d="M438.32,303.3c1.04,5.34-2.98,15.05-6.49,15.88s-10.13-3.55-10.85-7.19l-23.89-120.88-7.99-68.08c-.26-2.21,5.43-7.91,7.55-8.37,2.67-.58,5.13,5.98,5.9,9.72l20.23,98.85,15.54,80.07Z"/>
  <path fill="#E8846F" d="M457.36,302.47c-3.25-42.47-7.81-81.94-17.41-123.7-8.4-26.06-17.09-56.69-1.63-66.91l16.24,55.71c11.32,46.35,15.11,91.96,17.94,140.56l-9.13,2.16c-2.32.55-5.08-5.21-6-7.82Z"/>
  <path fill="#E8846F" d="M781.25,171.52c-10.63,11.76-33.03,10.83-44.46-2.86,6.72-18.3,32.78-35.24,42.96-25.6,4.97,4.71,4.59,22.06,1.5,28.45Z"/>
</svg>
